<svg id="Layer_1" data-name="Layer 1" xmlns="http://www.w3.org/2000/svg" viewBox="0 0 999.36 1006.55"><defs><style>.cls-1{fill:none;fill-rule:evenodd;}</style></defs><path class="cls-1" d="M1444.55,350c.08,7.42-2.29,11.52-2.5,18.5,2.85,1.92,4.93,5.27,7,8l21,20.5c-.45.54,0,0-.5.5-8.08,6-25.5-1.84-28.5-6.5h-.5v1c-1.92,2.6-1.86,6-3,9.5-3.24,9.88-4.64,22.25-7.5,32.5-1.12,4-.73,8.67-3,11.5-3.13,2.29-7.83,2.23-12,3.5-9.89,3-30.85,7-37,13l-8-3.5-20,1.5h-8.5c-7,1.54-16,.46-23,2h-8c-6.51,1.43-15,.58-21.5,2l-41,2.5c-9.44,2.08-21.08.93-30.5,3h-6c-10.45,2.32-22.66.59-33.5,3-8.11,1.8-17.45.58-26,2.5-7.27,1.63-16.55.62-24,2.5-14.13,3.57-32.15,4.7-45,10,1.88,2.59,4.92,4.07,7.5,6,5.63,4.2,10.73,9.22,16.5,13.5,3.32,2.46,6.22,6,9.5,8.5,14.45,10.81,27.94,22.31,42.51,33,18.32,13.46,35.51,29.17,54,42.51,48.25,34.79,96.11,70.21,146,103.5,22.4,14.94,45.24,29.84,68.5,43.5,4.41,2.59,15.52,8.11,18,12a5.58,5.58,0,0,1,0,6,4.29,4.29,0,0,1-2.5.5c-3.26-1.9-8.3-1.28-12-2.5-7.14-2.34-15.32-4.74-21.5-8.5-27.73-16.85-57.23-31-85-48-49.49-30.35-99.54-59.09-146.5-92-33.32-23.35-65.08-48.34-98-72-10.08-7.25-19.67-15.22-30-22.5-4.07-2.86-8.22-8.16-13-10-3.87-1.49-11.58,1-15.5,2-11.06,2.76-22.75,2.43-33.5,5-9.69,2.32-20.06,1.37-29.5,3.5H953c-5.61,1.23-13.21.71-19,2H924c-6.44,1.38-15.67.5-23,.5-16.92,0-33.83-.13-48-3.5l-7-.5c-12.61-3.15-23-3.65-31-11.5V496c10.65-10.46,26.37-16.6,41-23,16.23-7.1,34-13.14,52-19,10.34-3.36,20.47-3.68,31.51-6.5a167.28,167.28,0,0,1,37.5-5V442c-8-7.77-15.3-18.88-22-28-4.68-6.38-10.79-12.15-15.5-18.5-10.55-14.22-21.51-27.7-32-42-14.37-19.58-30.94-38.09-45-58-22.31-31.6-45.83-62.45-68-94-11.76-16.74-21.49-34.53-32.5-52-14.95-23.71-29-48.59-45-71.5-5.26-7.52-17.29-18.36-14.5-30,15.75-7.24,23.73,7.27,30,16,17.92,24.93,38,48.45,56,73.5,7.27,10.1,16.13,19.48,23.5,29.5,35.84,48.78,75.35,94.25,111.5,142.51,2.4,3.19,6.1,5.8,8.5,9,10.72,14.28,23.28,26.76,34,41,3.32,4.41,8.17,8.09,11.5,12.51,12.44,16.5,27.06,30.95,39.5,47.5,2.25,3,5.74,5.49,8,8.5,2.87,3.82,11.52,17.14,16.5,17.5,4.54,3.12,15.15,2.52,21.5,4,19.48,4.53,43,4,66.5,4,11.24,0,25.09,1.14,35-1,3.1-.67,7.52,0,10-.5,7.32-1.58,15.28.45,22-1h9c7-.15,18.15.48,25-1l61.5-1,42-2c1.85-6,11.22-16.14,15-21.5,9.33-13.26,17.67-26.69,27-40,4.45-6.36,8.71-12.71,13-19.51,1.26-2,3.15-3.46,4-6,.28-.23-6.56-9.74-8-11.5-6.29-7.66-11.69-15.76-17.5-24-3.13-4.43-8.23-9-10-14.5h1c1.46-1,3.49-.46,5.5-1,10.63-2.87,11.69,1.14,17.5,5.5,10.21,7.67,19.3,16.33,29.5,24,4.06,3.05,7.45,8.66,12,11C1428.66,352.35,1438.73,349.31,1444.55,350Z" transform="translate(-470.69 -45.99)"/><path class="cls-1" d="M641,428.47l16,1.5c5.38,1.68,13.21,2.59,20,5.5,27,11.56,60.86,32.09,75,56,5.54,9.37,9,21.5,12.5,32.5,1.63,5.14,2.29,10.6,3.5,15.5,3.3,13.37.15,30.12-3.5,40-1.64,4.42-2,8.86-4,13C751.39,611,739.2,625.58,725,639c-1.55,1.47-4.31,1.68-6,3-8.2,6.44-16.89,9.83-24.5,13l-5,.5c-5.15,2.33-11.25,3-17,4-.61.11-3.54-.52-5-.5a87,87,0,0,1-29-5c-24.62-8.69-45.75-27.38-56-52-4.69-11.27-9.73-29.29-4-43.51,8.49-21.05,22.16-34.81,43.5-40,26.18-6.36,52.89,14.56,47.5,40-1.31.38-1.19.6-2.5,1V559c-3.28-2.25-3.47-5.38-5.5-9-3.16-5.64-13.77-15.17-21-16.5C622.73,530.21,609,543.3,603,559c-2.06,5.41-4.4,13.81-2,21,7,21,23.16,34.87,42.5,42,3.67,1.35,11,4.42,16,4l2-1c2.23-.21,7.81.85,10,0,1.33-.52,4.61-2.3,6-2.5l1.5.5c13.69-5,27.82-16.49,35-28a93,93,0,0,0,9-19c13-39.12-14.64-75.34-39.5-89a83.56,83.56,0,0,0-12.5-5l-4.5-.5c-10.12-4.21-29.3-5.4-42.5-1a82.53,82.53,0,0,0-17,7.5c-16.79,10-34.31,32.8-42.5,51.5-2,4.63-2.65,9.08-4.5,14-2.77,7.35-8,24.83-6.5,33,1.07,6-2.07,14.25-.5,21,2.58,11.18,2,23.3,5.5,33.5,2.85,8.24,6.64,17.42,10,25,1,2.33.79,4.14,2,6.5C578.93,689,590.94,703.07,601,718c3.52,5.23,11,10.92,15.5,15.5,1.25,1.27,1.58,3.41,3,4.5,7.8,6,15.79,13.75,24,19,12.83,8.21,28.12,13.48,43.5,19,11.07,4,22.2,3.1,34,6.5,3.32,1,5.35-.33,9,.5,5,1.13,15.17.06,23.51,1,.57.06,3.88,1,4.5,1a148.92,148.92,0,0,1,15-.5l4.5-.5c4.32.63,14.25-.23,21-.5,3.17,1.75,9.15-.86,13-.5,11.74,1.1,27.77-.7,41.5-1.5,3.17,1.79,14.42-.79,21.5-.5,0,0,18.43.14,25-1,6.94-1.21,27.07-1.47,34.5-.5l8.51-.5c5.8,1.11,14.61-1.08,23,.5a31.12,31.12,0,0,0,8.5.5c.73-.1,1.63-.79,3-.5,10.29,2.18,23.57,1.47,32,3,8.25,1.49,17.46,2.82,25,5l9,1.5c39.07,14.24,77,32.16,99.51,64.5,4.72,6.77,11.48,14.09,15.5,21.5a429.23,429.23,0,0,1,24,52.5c3.15,8.35,3.92,16.21,6.5,25,2.14,7.29,3.49,16.75,5.5,24.51q.24,4.74.5,9.5c.67,2.93,1.49,8.45,1,11q.49,6.24,1,12.5c-1.19,9.94-1,20-3.5,29-1.17,4.27-.17,9.48-2.5,12.5-3.12,2-22.26.55-27.5.5v-.5c2.3-3.39,1-10,2-14.5,4.17-19.4-.31-44.17-4.5-59.5-17.28-63.21-45.76-113.34-103.51-136-9.24-3.63-27.66-9.26-37.5-9-1,0-4-1.25-5-1.5-3.6-.87-7.24-.59-10-.5-3.26.11-9.24-1.58-12.5-2-2.59-.34-7.9.45-9.5.5-3.08.1-6.06-1.18-10.5-.5-2,.31-5.74-.51-8.5-.5-10.35,0-18.46-.92-26.5,1-4.86,1.16-10.9-.69-14.51,0-10.18,2-15.25.43-23.5,2l-4-.5c-6.38,1.28-15.37,1.19-22.5,2.5-2.23.41-6.31-.58-9,0-6.29,1.34-13.54,2.23-18.5,1.5a17.6,17.6,0,0,0-2.5,1c-3.1.69-15.7.94-18,.5-1-.19-1.95.9-2.5,1-2.78.49-6.1-.47-9.5-.5,0,0-6.85,1.39-7.5,1.5-3.94-1.62-11.14,1-18,.5-8.86-.62-20.84,1.24-27,0-5.9-1.19-17.95-.41-23,0-2.84.23-7.27-.86-11-1.5l-4.5.5a44.34,44.34,0,0,0-8.5-.5c-.79,0-4-1.31-5-1.5-4.46-.87-7.85-.4-11.5-1.5-9.73-3-20.31-2.14-29.5-5.5-14.65-5.37-30.34-9.85-43-17.5-38.32-23.16-66.88-55.65-91-93-1.46-2.26-1.62-4.68-3-7a236.11,236.11,0,0,1-16-31.5c-.16-1.17-.33-2.33-.5-3.5-15-32.25-21.49-82.55-9.5-121.51,8.18-26.53,22-49.94,36-71,2.57-3.85,6.76-6.84,9.51-10.5,5.88-7.85,12.54-15.24,21-20.5,1.13-.71,1.91-2.8,3-3.5,1.33-.86,2.51-.2,4-1l2-2.5c1.25-.75,2.23-.26,3.5-1l1.5-2,3.5-.5c3-1.6,7.19-4.07,10.5-5.5,1.84-.8,3.33,0,4.5-.5.33-.5.66-1,1-1.5h3c6.67-2.11,11.17-3,17.5-4.5C629.54,428.8,638,430.37,641,428.47Z" transform="translate(-470.69 -45.99)"/><path class="cls-1" d="M472,652.48h2.5c10.94,17.92,16.28,41,24.5,61.5,7.81,19.44,18.79,38.88,29,56.51.84.66,1.67,1.33,2.5,2,2.84,4.11,4.7,8.35,7.5,12.5,1.81,2.67,5.11,4.9,7,7.5,6.54,9,13.3,16.67,22,23.5l3,4c8.87,6.65,17.63,13.38,27,19.5s22.36,10.78,33,15.5l4,.5c6,2,13.45,4.06,19.5,6l6.5.5c6.85,1.76,25.31,5.47,31.5,4,6.55,2.42,20.76,2.32,26,1.5,2.37-.37,7,.75,8.5,1,3.65.6,13-.84,14-1,5.76-.87,11.7,1.36,18.51,0,10.63-2.12,22.5.58,36.5-3,1.89-.48,6.73.8,10,0,3.44-.84,6.38-.69,9.5-1.5,2.19-.57,6.15,0,7,0s3.5-1,4.5-1l3,.5c12.17-2.94,30.78-1.75,43.5-4,1.59-.28,5.92.23,7.5.5,2.74.47,11.66-.93,12-1,4.66-.94,8.15.6,12,0,7.62-1.19,30.78-.84,39,1,3.23.73,4.63-.61,7.5,0,6.94,1.49,19.48,3.6,23,3,.48-.08,3.33,1.3,4,1.5,2.81.84,15.15,3.34,16.5,3,7.57,3,16.62,4.49,24,8,33.66,16,59,37.82,78,68.5a156.7,156.7,0,0,1,13.5,26c2.53,6.34,6.13,9.49,1.5,16.5-6.72-3.5-10.38-12.75-14.5-19-7.08-10.75-15.68-20.48-23.5-30.51-.71-.9-2.08-1.26-3-2-3.68-3-6.52-6.53-10.5-9.5-2.13-1.58-3.81-4.51-6-6-3-2-5.82-2.7-9-4.5-11.4-6.46-23.34-14-36.5-19-9.8-3.7-18.49-4.31-28.5-7-6.83-1.83-15.78-.5-24-2.5h-8c-3.28-.53-11.21-.16-17.51,0-13,.33-26-.11-42,1.5a11.81,11.81,0,0,1-3-1c-4.54,2.15-8.22.18-12,1-3.24.71-8,1.29-12.5,2-1.74.28-5-.49-6.5-.5-1,0-5.1,1.24-6.5,1.5l-4.5-.5a76.63,76.63,0,0,1-16.5,1.5c-1.64,0-5.19,1.24-6.5,1.5-2.64.53-8.31,0-10,0-2.84,0-7.23,1.15-9,1.5-2.21.45-9.44,0-11.5,0-4.68,0-10.71,1.45-16,2-12.59,1.31-34.6.3-48.51,2-1.62.2-6.42-.75-8-1-3.33-.52-8.2,1.12-11.5.5-4.12-.77-9.32.09-14-1a77.46,77.46,0,0,0-12-2c-38.14-1.8-81.91-20.25-109.5-40.5-26.79-19.66-47.25-47.19-63-78-1.77-3.46-4.69-7.5-6.5-11-1.1-2.14-.57-3.62-1.5-6-1.07-2.77-3.6-6.73-5-9.5-1.05-2.07-.63-3.75-1.5-6-4.27-11.1-8.29-24-12.5-35.5-2-5.61-1.84-10.7-3.5-16.5C473.86,682.21,468.12,662.57,472,652.48Z" transform="translate(-470.69 -45.99)"/><path class="cls-1" d="M1233.54,1052a146.66,146.66,0,0,1,3-23.5c.46-1.88-.49-4.39-.5-5.5,0-2.5,1-8.18,1.5-11,.16-.91-.89-3.73-.5-5.5a40.08,40.08,0,0,0,.5-11.5c-1.63-9.15,1.08-19.46-.5-27-4.12-19.66-2.43-36-8-53-1.43-4.35-.91-9.34-2.5-13.5-6.83-17.81-11.5-35.59-20-51.5-23.44-43.86-60.71-76.91-105-100-15.43-8-35.27-12.75-50.5-18l-6.5-.5c-1.27-.32-3.55-1.65-4.5-2-.76-.27-3.53.53-5.5,0-6.76-1.82-18.82-2.22-24.5-3.5l-21-.5-3.5.5c-12.21-1.85-26,1.48-41.5,3-9.85,1-24.22,1.83-37,5-.41.1-1.83-.75-3-.5-6.08,1.35-13.28,1.74-17,2.5-6.33,1.3-18.19,4.09-21.5,3.5-4.68-.82-7.66,2.41-11.5,1-3.48,1.69-7.95,1.34-11.5,2-6.91,1.29-24.34,3.81-32,3-2.38-.25-11.38,1.12-13,1.5-2.84.68-7.37-.61-11.5,0-5.49.82-20.86.26-26.5-1l-15.5-1.5c-23.88-6.31-44.24-11.78-63-24-5.54-3.61-10.07-6.42-14.5-11-1.35-1.39-4-3.92-3-6l.5-1.5c8.55-1,24.66,8.57,32.5,11.5,5.58,2.09,11.35,3.4,16.5,5l6.5.5c4.53,1.43,14.28,3.75,19.5,3.5,4.83-.22,11.23,1.57,14.51,1a14.86,14.86,0,0,1,5,.5c2.56.53,10.47-.29,13.5-1,1.36-.32,3.46.62,4,.5,15.56-3.41,30.17-1.37,44-6.5,3.89-1.44,10.22-.58,13-1.5,11.65-3.86,22.15-5,34.5-8.5,2.57-.74,5,0,6.5-.5,9.37-3.14,15.75-3.91,25.5-6.5,1.68-.44,5.14.56,8-.5,5.68-2.09,13.86-2.51,18.5-3.5,7.68-1.64,14.71-3.14,24-4.5,8.56-1.25,20.43-1.35,30-2.5,2.26-.27,5.37.55,8.5,0,4.88-.85,13.07-.07,17.5.5.73.1,3.44-.55,5-.5,3.67.13,13.68.21,18.5,1,4.52.74,8.67,2.27,13,2.5,2.11-1.3,8.64,2.46,12,2,1.66-.22,10.17,1.72,12.5,3,5.21-.32,21.09,5.48,27.5,8,27.2,10.68,49.54,24.72,71.51,40.5,6,4.3,11.08,10,17,14.51,2,1.52,3.06,4.46,5,6a89.56,89.56,0,0,1,15.5,16.5l3.5,3c.73,1,.66,2.58,1.5,3.5.61.67,2,.72,2.5,1.5,11.26,16.27,22.09,33.51,30.5,52.5,5.73,12.94,9.32,28,13.5,42,.17,2.17.33,4.34.5,6.5,3,10.55,3.2,23.86,6,35.5q.26,7,.5,14c.54,2.81-.72,8.16,0,11.5,1,4.77.78,15.12-.5,20.51-.48,2,.68,4.17.5,5.5-.94,7.12-1.34,16.68-3,23.5v5c-1.51,5.81-1.35,12.29-3,18.5-2.25,8.48-5.09,17.73-7,26Z" transform="translate(-470.69 -45.99)"/></svg>